<svg xmlns="http://www.w3.org/2000/svg" xmlns:xlink="http://www.w3.org/1999/xlink" version="1.1" x="0px" y="0px" viewBox="0 0 100 100" enable-background="new 0 0 100 100" xml:space="preserve"><g><path d="M80.706,71.861c0.256,0,0.461-0.207,0.461-0.46V61.266c1.264-0.22,2.227-1.316,2.227-2.643c0-1.487-1.203-2.69-2.688-2.69   s-2.69,1.203-2.69,2.69c0,1.328,0.966,2.424,2.231,2.643v1.513H75.89V23.86c7.139-0.912,6.938-12.44,6.938-12.44   c0,7.349-7.392,6.417-7.704,6.375V17.79h-0.025h-0.004H24.817h-0.005h-0.193v0.022c-1.163,0.114-7.538,0.433-7.538-6.392   c0,0-0.192,11.505,6.939,12.426v55.745c-0.063-0.006-0.125-0.019-0.19-0.019h-0.047c-1.064,0-1.932,0.867-1.932,1.934v5.561H19.55   c-1.034,0-1.874,0.838-1.874,1.875c0,1.035,0.84,1.874,1.874,1.874h4.471h4.548h42.771h4.551h4.47c1.034,0,1.875-0.839,1.875-1.874   c0-1.037-0.841-1.875-1.875-1.875h-2.264v-5.561c0-1.067-0.867-1.934-1.933-1.934h-0.045c-0.078,0-0.152,0.014-0.229,0.023V67.834   h4.357v3.567C80.247,71.654,80.452,71.861,80.706,71.861z M49.955,35.99c-2.537,0-4.952,0.505-7.167,1.402v-13.46h14.333v13.46   C54.906,36.495,52.491,35.99,49.955,35.99z M28.568,87.067V23.933h12.399v14.305c-6.021,3.216-10.122,9.558-10.122,16.862   c0,10.554,8.555,19.109,19.109,19.109c10.551,0,19.11-8.556,19.11-19.109c0-7.305-4.104-13.646-10.126-16.862V23.933h12.399v63.134   H28.568z M75.89,66.855v-3.097h4.357v3.097H75.89z"></path></g></svg>